<?xml version="1.0" standalone="no"?>
<!DOCTYPE svg PUBLIC "-//W3C//DTD SVG 20010904//EN"
 "http://www.w3.org/TR/2001/REC-SVG-20010904/DTD/svg10.dtd">
<svg version="1.0" xmlns="http://www.w3.org/2000/svg"
 width="700.000000pt" height="700.000000pt" viewBox="0 0 700.000000 700.000000"
 preserveAspectRatio="xMidYMid meet">
<metadata>
Created by potrace 1.14, written by Peter Selinger 2001-2017
</metadata>
<g transform="translate(0.000000,700.000000) scale(0.100000,-0.100000)"
fill="#000000" stroke="none">
<path d="M3090 5550 c-30 -4 -79 -11 -109 -15 -30 -4 -63 -9 -75 -11 -12 -3
-32 -7 -46 -10 -123 -25 -295 -83 -424 -143 -474 -223 -847 -631 -1039 -1136
-47 -125 -100 -321 -112 -414 -4 -30 -8 -63 -11 -74 -2 -11 -6 -60 -10 -108
-7 -98 -9 -94 61 -104 145 -21 210 -25 420 -25 201 1 236 2 355 14 123 13 165
17 235 27 39 6 84 12 100 14 72 10 266 45 388 70 12 2 36 7 52 10 113 23 305
67 445 102 52 13 106 26 120 29 42 9 408 113 545 155 292 91 634 215 935 339
69 28 153 63 188 77 34 14 62 29 62 34 0 16 -83 164 -143 254 -204 308 -478
552 -801 712 -173 87 -437 171 -591 188 -33 4 -64 10 -69 13 -15 9 -415 11
-476 2z"/>
<path d="M5758 5448 c-30 -10 -38 -42 -14 -51 33 -13 266 -197 327 -258 72
-73 150 -185 143 -203 -5 -11 -22 -23 -235 -177 -166 -120 -154 -117 -246 -68
-65 34 -85 40 -121 36 -24 -2 -50 -11 -58 -19 -14 -14 -9 -21 45 -68 34 -29
61 -57 61 -62 0 -10 -585 -298 -606 -298 -2 0 -27 -11 -56 -24 -144 -65 -390
-165 -678 -274 -189 -72 -558 -191 -850 -276 -287 -83 -831 -211 -1020 -241
-19 -3 -46 -8 -60 -10 -14 -3 -36 -8 -50 -10 -42 -9 -190 -31 -265 -40 -27 -4
-61 -8 -75 -11 -150 -24 -582 -25 -750 -1 -161 23 -207 35 -295 78 -191 91
-258 216 -191 353 60 122 219 234 448 316 35 13 39 19 74 114 21 56 59 146 86
200 26 54 48 101 48 103 0 14 -323 -65 -470 -115 -114 -39 -238 -91 -340 -143
-87 -44 -242 -140 -271 -168 -9 -9 -38 -34 -65 -56 -109 -91 -233 -287 -252
-397 -57 -344 182 -621 653 -753 33 -10 71 -19 85 -21 14 -3 48 -9 75 -14 153
-29 242 -35 535 -35 230 1 353 6 475 20 17 2 57 7 90 10 63 7 71 8 175 24 36
6 83 13 105 17 22 3 70 12 107 20 37 7 82 16 100 19 28 5 215 47 271 61 9 2
25 6 35 8 567 132 1255 383 1817 663 381 191 791 435 1059 632 28 21 74 54
103 74 61 43 59 44 88 -65 10 -38 23 -68 30 -68 16 0 52 40 63 70 5 14 7 69 5
123 -2 53 0 97 5 97 10 0 252 137 267 151 5 5 17 9 27 9 10 0 18 4 18 8 0 7
99 62 112 62 6 0 61 -86 85 -135 35 -70 63 -159 104 -336 22 -96 42 -175 44
-177 2 -2 12 -1 23 2 28 9 46 50 45 109 0 57 -12 247 -18 287 -2 14 -6 72 -10
130 -3 58 -8 134 -10 170 -3 36 -2 70 2 75 5 6 55 40 112 75 164 100 246 186
285 297 17 50 10 58 -49 62 -73 4 -183 -26 -272 -74 -47 -26 -90 -51 -97 -56
-6 -5 -36 -27 -66 -48 l-55 -39 -175 90 c-96 50 -188 98 -205 108 -91 53 -224
118 -250 123 -16 3 -42 1 -57 -5z"/>
<path d="M5195 3839 c-203 -150 -598 -416 -733 -494 -9 -6 -78 -47 -152 -91
-140 -84 -249 -147 -360 -207 -181 -96 -223 -119 -325 -170 -398 -199 -879
-400 -1195 -499 -92 -28 -326 -93 -372 -102 -13 -3 -48 -10 -78 -15 -30 -6
-66 -13 -80 -16 -93 -18 -114 -21 -163 -24 -17 -1 -17 -3 3 -28 38 -49 154
-166 225 -229 242 -211 526 -360 839 -439 203 -51 282 -60 511 -60 190 0 267
7 403 35 441 92 857 336 1147 671 217 250 392 602 451 904 2 11 6 31 9 45 18
88 38 285 38 390 0 63 -12 260 -18 290 -3 14 -8 45 -11 70 -3 25 -8 48 -12 51
-4 3 -61 -34 -127 -82z"/>
<path d="M5444 3808 c3 -24 9 -128 13 -232 l6 -189 106 -106 c115 -115 120
-121 168 -196 145 -228 167 -457 66 -690 -59 -136 -206 -325 -359 -462 -44
-39 -95 -85 -114 -102 l-35 -32 35 7 c190 36 482 254 664 494 178 236 242 475
186 695 -23 91 -85 227 -135 297 -19 26 -35 52 -35 58 0 5 -6 13 -13 17 -7 4
-26 26 -43 48 -45 61 -180 195 -271 268 -83 66 -227 167 -239 167 -4 0 -4 -19
0 -42z"/>
</g>
</svg>
